<svg width="32" height="32" viewBox="0 0 32 32" fill="none" xmlns="http://www.w3.org/2000/svg">
    <path d="M11.5556 16H13.3333V17.8H11.5556V16ZM24 10.6V23.2C24 24.199 23.2089 25 22.2222 25H9.77778C8.79111 25 8 24.19 8 23.2V10.6C8 9.61 8.8 8.8 9.77778 8.8H10.6667V7H12.4444V8.8H19.5556V7H21.3333V8.8H22.2222C23.2089 8.8 24 9.61 24 10.6ZM9.77778 12.4H22.2222V10.6H9.77778V12.4ZM22.2222 23.2V14.2H9.77778V23.2H22.2222ZM18.6667 17.8V16H20.4444V17.8H18.6667ZM15.1111 17.8V16H16.8889V17.8H15.1111ZM11.5556 19.6H13.3333V21.4H11.5556V19.6ZM18.6667 21.4V19.6H20.4444V21.4H18.6667ZM15.1111 21.4V19.6H16.8889V21.4H15.1111Z" fill="#2196F3"/>
</svg>
